<?xml version="1.0" encoding="UTF-8" standalone="no"?>
<!-- Created with Inkscape (http://www.inkscape.org/) -->

<svg
   xmlns:dc="http://purl.org/dc/elements/1.1/"
   xmlns:cc="http://creativecommons.org/ns#"
   xmlns:rdf="http://www.w3.org/1999/02/22-rdf-syntax-ns#"
   xmlns:svg="http://www.w3.org/2000/svg"
   xmlns="http://www.w3.org/2000/svg"
   xmlns:sodipodi="http://sodipodi.sourceforge.net/DTD/sodipodi-0.dtd"
   xmlns:inkscape="http://www.inkscape.org/namespaces/inkscape"
   width="271.06564mm"
   height="51.419346mm"
   viewBox="0 0 271.06564 51.419346"
   version="1.1"
   id="svg8"
   sodipodi:docname="Logo-2.svg"
   inkscape:version="0.92.2 5c3e80d, 2017-08-06"
   inkscape:export-filename="/Users/ed/Documents/SAAC/Sombrero/Sombrero-1.png"
   inkscape:export-xdpi="150"
   inkscape:export-ydpi="150">
  <defs
     id="defs2" />
  <sodipodi:namedview
     id="base"
     pagecolor="#ffffff"
     bordercolor="#666666"
     borderopacity="1.0"
     inkscape:pageopacity="0.0"
     inkscape:pageshadow="2"
     inkscape:zoom="0.49497475"
     inkscape:cx="431.04378"
     inkscape:cy="-22.176958"
     inkscape:document-units="mm"
     inkscape:current-layer="layer1"
     showgrid="false"
     inkscape:snap-global="true"
     fit-margin-top="0"
     fit-margin-left="0"
     fit-margin-right="0"
     fit-margin-bottom="0"
     inkscape:window-width="1215"
     inkscape:window-height="821"
     inkscape:window-x="97"
     inkscape:window-y="67"
     inkscape:window-maximized="0" />
  <metadata
     id="metadata5">
    <rdf:RDF>
      <cc:Work
         rdf:about="">
        <dc:format>image/svg+xml</dc:format>
        <dc:type
           rdf:resource="http://purl.org/dc/dcmitype/StillImage" />
        <dc:title></dc:title>
      </cc:Work>
    </rdf:RDF>
  </metadata>
  <g
     inkscape:label="Layer 1"
     inkscape:groupmode="layer"
     id="layer1"
     transform="translate(430.43931,-210.27709)">
    <path
       id="path966"
       style="fill:none;fill-rule:evenodd;stroke:#d40000;stroke-width:2;stroke-linecap:butt;stroke-linejoin:miter;stroke-miterlimit:4;stroke-dasharray:none;stroke-opacity:1"
       d="m -351.20024,243.1756 2.57497,-2.57496 2.57497,2.57496 2.57497,-2.57496 2.57497,2.57496"
       inkscape:connector-curvature="0"
       sodipodi:nodetypes="ccccc" />
    <path
       sodipodi:nodetypes="ccccc"
       inkscape:connector-curvature="0"
       d="m -351.20024,238.0493 2.57497,-2.57496 2.57497,2.57496 2.57497,-2.57496 2.57497,2.57496"
       style="fill:none;fill-rule:evenodd;stroke:#00d400;stroke-width:2;stroke-linecap:butt;stroke-linejoin:miter;stroke-miterlimit:4;stroke-dasharray:none;stroke-opacity:1"
       id="path969" />
    <path
       id="path973"
       style="fill:none;fill-rule:evenodd;stroke:#009fff;stroke-width:2;stroke-linecap:butt;stroke-linejoin:miter;stroke-miterlimit:4;stroke-dasharray:none;stroke-opacity:1"
       d="m -356.35018,232.92299 2.57497,-2.57496 2.57497,2.57496 2.57497,-2.57496 2.57497,2.57496 2.57497,-2.57496 2.57497,2.57496 2.57497,-2.57496 2.57497,2.57496"
       inkscape:connector-curvature="0"
       sodipodi:nodetypes="ccccccccc" />
    <path
       d="m -173.11968,228.23516 c 4.83111,-0.0436 5.66331,-0.11235 6.28386,-0.51935 l 0.71528,-0.46912 v -5.38546 c 0,-4.68675 -0.0568,-5.43257 -0.43754,-5.74859 -0.34533,-0.28659 -1.84242,-0.36312 -7.10309,-0.36312 -5.26067,0 -6.75776,0.0765 -7.10309,0.36312 -0.38064,0.31591 -0.43753,1.06 -0.43753,5.72229 0,4.45067 0.0675,5.41524 0.3985,5.6899 0.21918,0.1819 0.78473,0.42744 1.25677,0.54564 0.47205,0.1182 3.36413,0.19231 6.42684,0.16469 z m 0.25226,5.25725 c -4.99004,0.0701 -7.38778,-2.5e-4 -8.73125,-0.25633 -1.01865,-0.19417 -2.2688,-0.52886 -2.77812,-0.74376 -0.50933,-0.21491 -1.32994,-0.73128 -1.82359,-1.14749 -0.49365,-0.41622 -1.11612,-1.23793 -1.38325,-1.82603 -0.42976,-0.9461 -0.48571,-1.83128 -0.48571,-7.68387 0,-5.89547 0.0538,-6.73298 0.49456,-7.70363 0.272,-0.59897 0.9172,-1.41141 1.43376,-1.80541 0.51657,-0.39401 1.57132,-0.97162 2.34391,-1.28359 1.30229,-0.52587 1.97065,-0.57421 9.16797,-0.66315 6.43986,-0.0796 8.09131,-0.023 9.68749,0.33216 1.0583,0.23545 2.4706,0.77462 3.13843,1.19814 0.74496,0.47244 1.44909,1.20992 1.8219,1.90818 0.58905,1.1033 0.60765,1.34871 0.60765,8.0173 0,6.86002 -0.002,6.88249 -0.66645,8.0698 -0.4565,0.81554 -1.11158,1.45671 -2.07942,2.03525 -0.77713,0.46455 -1.96551,0.98213 -2.64084,1.15018 -0.70786,0.17615 -4.14123,0.3465 -8.10704,0.40225 z"
       style="fill:#d45500;stroke-width:0.26458335"
       id="path937"
       inkscape:connector-curvature="0" />
    <path
       d="m -208.25544,220.10024 c 4.75263,-0.01 7.38181,-0.11867 8.00365,-0.33073 0.89998,-0.30691 0.92828,-0.35884 1.00563,-1.84504 0.0794,-1.5254 0.0772,-1.53021 -0.8514,-1.91822 -0.74124,-0.30971 -2.38867,-0.38899 -8.08323,-0.38899 h -7.15225 v 2.24895 2.24896 l 7.0776,-0.0149 z m -10.3335,13.50478 c -0.90139,-0.002 -1.93655,-0.15428 -2.30035,-0.33808 -0.39711,-0.20062 -0.7973,-0.74728 -1.00136,-1.36784 -0.25793,-0.78441 -0.32173,-3.38823 -0.26458,-10.79803 l 0.0753,-9.76435 0.64372,-0.52103 c 0.62137,-0.50294 1.02999,-0.51813 11.77396,-0.43777 10.78329,0.0806 11.17945,0.10175 12.70891,0.67703 0.86827,0.32659 1.99936,0.93379 2.51354,1.34933 0.51418,0.41555 1.16389,1.14646 1.44379,1.62425 0.33801,0.577 0.5477,1.54492 0.62443,2.88237 0.0652,1.13554 -0.0236,2.52867 -0.20361,3.19468 -0.19441,0.71947 -0.69695,1.55668 -1.28589,2.14223 -0.55513,0.55193 -1.64176,1.21239 -2.55207,1.55116 -0.92459,0.34408 -2.81851,0.71322 -4.54423,0.88569 l -2.95893,0.29572 4.14736,1.80269 c 2.46488,1.07139 4.38886,2.07622 4.74267,2.47694 0.42303,0.47913 0.59531,1.00774 0.59531,1.82661 0,0.96196 -0.13449,1.26551 -0.81405,1.83732 -0.67977,0.572 -1.0785,0.68498 -2.41732,0.68498 -1.54936,0 -1.86623,-0.13568 -9.4233,-4.03489 -4.30101,-2.2192 -7.90659,-4.07139 -8.01239,-4.11599 -0.10581,-0.0446 -0.23173,1.48405 -0.27984,3.39699 -0.0864,3.43631 -0.0964,3.48572 -0.82983,4.11598 -0.6132,0.52692 -1.02751,0.63723 -2.38125,0.63401 z"
       style="fill:#d45500;stroke-width:0.26458335"
       id="path935"
       inkscape:connector-curvature="0" />
    <path
       style="fill:#d45500;stroke-width:0.26458335"
       d="m -420.33814,233.59854 c -6.17199,-0.008 -8.03664,-0.0905 -8.71412,-0.38495 -0.47924,-0.20829 -0.97848,-0.68121 -1.12448,-1.0652 -0.14441,-0.37984 -0.26257,-1.03341 -0.26257,-1.45238 0.18776,-1.03665 0.48502,-2.2039 1.74852,-2.24649 l 16.38035,-0.13261 c 0.71408,-0.006 1.24691,-0.24097 1.64874,-0.46037 0.52657,-0.2875 0.85989,-0.7499 0.85989,-1.65668 0,-0.84429 -0.13771,-1.1357 -0.71576,-1.51456 -0.62104,-0.40703 -1.62772,-0.49012 -7.60677,-0.62781 -5.47803,-0.12616 -7.12919,-0.2485 -8.0526,-0.59667 -0.63887,-0.24089 -1.53638,-0.66961 -1.99445,-0.95271 -0.45808,-0.28311 -1.09622,-0.98332 -1.4181,-1.55602 -0.48926,-0.87052 -0.58523,-1.45162 -0.58523,-3.54334 0,-2.10907 0.0967,-2.68519 0.61585,-3.66814 0.38863,-0.73584 1.04758,-1.43121 1.78594,-1.88465 0.64354,-0.3952 1.87971,-0.90122 2.74702,-1.12447 1.05991,-0.27284 8.43633,-0.45128 10.99083,-0.40593 l 7.98396,0.14174 c 0.67764,0 1.17552,0.30461 1.41714,0.55488 0.3301,0.34191 0.59032,1.25761 0.59032,1.81916 0,0.45498 -0.17498,1.1656 -0.38884,1.57916 -0.2175,0.4206 -0.75953,0.88116 -1.23011,1.0452 -0.46269,0.1613 -4.11286,0.15153 -8.07857,0.15153 -4.23297,0 -8.51267,0.13947 -8.88681,0.30994 -0.37414,0.17047 -0.74768,0.57859 -0.83009,0.90695 -0.0824,0.32835 -0.0747,0.83377 0.0172,1.12315 0.0918,0.28938 0.53709,0.65516 0.98942,0.81284 0.48324,0.16846 2.97888,0.2867 6.05133,0.2867 3.44453,0 5.90613,0.12957 7.21344,0.3797 1.09149,0.20884 2.45269,0.61854 3.02489,0.91046 0.57219,0.29191 1.40954,0.95123 1.86077,1.46514 0.45122,0.51392 0.9453,1.38414 1.09795,1.93382 0.15265,0.54968 0.27821,1.63131 0.27902,2.40361 7.9e-4,0.77231 -0.13648,1.95206 -0.30509,2.62167 -0.19827,0.78739 -0.65487,1.56578 -1.29254,2.20346 -0.54229,0.54228 -1.63465,1.22867 -2.42746,1.5253 -0.79281,0.29663 -2.36291,0.66749 -3.4891,0.82412 -1.1262,0.15664 -5.58112,0.28014 -9.89984,0.27445 z"
       id="path909"
       inkscape:connector-curvature="0"
       sodipodi:nodetypes="cscccscscccccscccscssscsscccscccscccsccc" />
    <path
       id="path905"
       style="fill:#d45500;stroke-width:0.26458335"
       d="m -384.25719,228.23516 c 4.83111,-0.0436 5.66331,-0.11235 6.28386,-0.51935 l 0.71528,-0.46912 v -5.38546 c 0,-4.68675 -0.0568,-5.43257 -0.43754,-5.74859 -0.34533,-0.28659 -1.84242,-0.36312 -7.10309,-0.36312 -5.26067,0 -6.75776,0.0765 -7.10309,0.36312 -0.38064,0.31591 -0.43753,1.06 -0.43753,5.72229 0,4.45067 0.0675,5.41524 0.3985,5.6899 0.21918,0.1819 0.78473,0.42744 1.25677,0.54564 0.47205,0.1182 3.36413,0.19231 6.42684,0.16469 z m 0.25226,5.25725 c -4.99004,0.0701 -7.38778,-2.5e-4 -8.73125,-0.25633 -1.01865,-0.19417 -2.2688,-0.52886 -2.77812,-0.74376 -0.50933,-0.21491 -1.32994,-0.73128 -1.82359,-1.14749 -0.49365,-0.41622 -1.11612,-1.23793 -1.38325,-1.82603 -0.42976,-0.9461 -0.48571,-1.83128 -0.48571,-7.68387 0,-5.89547 0.0538,-6.73298 0.49456,-7.70363 0.272,-0.59897 0.9172,-1.41141 1.43376,-1.80541 0.51657,-0.39401 1.57132,-0.97162 2.34391,-1.28359 1.30229,-0.52587 1.97065,-0.57421 9.16797,-0.66315 6.43986,-0.0796 8.09131,-0.023 9.68749,0.33216 1.0583,0.23545 2.4706,0.77462 3.13843,1.19814 0.74496,0.47244 1.44909,1.20992 1.8219,1.90818 0.58905,1.1033 0.60765,1.34871 0.60765,8.0173 0,6.86002 -0.002,6.88249 -0.66645,8.0698 -0.4565,0.81554 -1.11158,1.45671 -2.07942,2.03525 -0.77713,0.46455 -1.96551,0.98213 -2.64084,1.15018 -0.70786,0.17615 -4.14123,0.3465 -8.10704,0.40225 z"
       inkscape:connector-curvature="0" />
    <path
       id="path897"
       style="fill:#d45500;stroke-width:0.26458335"
       d="m -307.42527,219.32142 c 3.99011,0 7.42521,-0.11356 7.80521,-0.25803 0.60336,-0.2294 0.67868,-0.40454 0.67868,-1.57819 0,-1.03441 -0.11077,-1.37944 -0.51177,-1.59405 -0.31728,-0.1698 -3.28364,-0.27389 -7.80521,-0.27389 h -7.29344 v 1.85208 1.85208 z m 0.5653,8.94464 c 5.71322,-0.0634 7.40458,-0.16038 7.74617,-0.44422 0.2941,-0.24439 0.437,-0.77453 0.437,-1.62125 0,-0.84674 -0.14289,-1.37686 -0.43701,-1.62125 -0.34233,-0.28445 -2.06215,-0.38073 -7.9375,-0.44438 l -7.50049,-0.0813 v 1.95539 c 0,1.07546 0.0861,2.04149 0.19133,2.14672 0.10524,0.10524 3.48046,0.15485 7.5005,0.11025 z m -1.47412,5.26103 c -8.83256,0.0656 -11.00107,0.0121 -11.67227,-0.28797 -0.52784,-0.23596 -0.9323,-0.67819 -1.12448,-1.22946 -0.20153,-0.57812 -0.29964,-3.86843 -0.29865,-10.01574 7.9e-4,-5.34529 0.11264,-9.555 0.26862,-10.11655 0.18661,-0.67184 0.49183,-1.05483 1.01251,-1.2705 0.53828,-0.22296 3.78998,-0.28628 11.70378,-0.22788 10.64618,0.0786 11.00026,0.0978 12.42724,0.67455 0.80785,0.32652 1.84235,0.98092 2.29887,1.45422 0.45653,0.4733 0.95641,1.19571 1.11086,1.60537 0.15445,0.40965 0.28081,1.6974 0.28081,2.86166 0,1.16426 -0.13361,2.3769 -0.29691,2.69476 -0.1633,0.31785 -0.59334,0.89599 -0.95564,1.28474 l -0.65872,0.70683 0.92935,0.92936 c 0.51115,0.51114 1.07464,1.36956 1.25221,1.90759 0.19361,0.58666 0.27546,1.79689 0.20446,3.0233 -0.0802,1.3861 -0.28698,2.33373 -0.6416,2.94093 -0.28777,0.49273 -0.92297,1.16526 -1.41157,1.49453 -0.48859,0.32926 -1.49418,0.79915 -2.23465,1.04419 -1.15572,0.38246 -2.88193,0.45693 -12.19422,0.52607 z"
       inkscape:connector-curvature="0" />
    <path
       id="path893"
       style="fill:#d45500;stroke-width:0.26458335"
       d="m -273.60753,220.10024 c 4.75263,-0.01 7.38181,-0.11867 8.00365,-0.33073 0.89998,-0.30691 0.92828,-0.35884 1.00563,-1.84504 0.0794,-1.5254 0.0772,-1.53021 -0.8514,-1.91822 -0.74124,-0.30971 -2.38867,-0.38899 -8.08323,-0.38899 h -7.15225 v 2.24895 2.24896 l 7.0776,-0.0149 z m -10.3335,13.50478 c -0.90139,-0.002 -1.93655,-0.15428 -2.30035,-0.33808 -0.39711,-0.20062 -0.7973,-0.74728 -1.00136,-1.36784 -0.25793,-0.78441 -0.32173,-3.38823 -0.26458,-10.79803 l 0.0753,-9.76435 0.64372,-0.52103 c 0.62137,-0.50294 1.02999,-0.51813 11.77396,-0.43777 10.78329,0.0806 11.17945,0.10175 12.70891,0.67703 0.86827,0.32659 1.99936,0.93379 2.51354,1.34933 0.51418,0.41555 1.16389,1.14646 1.44379,1.62425 0.33801,0.577 0.5477,1.54492 0.62443,2.88237 0.0652,1.13554 -0.0236,2.52867 -0.20361,3.19468 -0.19441,0.71947 -0.69695,1.55668 -1.28589,2.14223 -0.55513,0.55193 -1.64176,1.21239 -2.55207,1.55116 -0.92459,0.34408 -2.81851,0.71322 -4.54423,0.88569 l -2.95893,0.29572 4.14736,1.80269 c 2.46488,1.07139 4.38886,2.07622 4.74267,2.47694 0.42303,0.47913 0.59531,1.00774 0.59531,1.82661 0,0.96196 -0.13449,1.26551 -0.81405,1.83732 -0.67977,0.572 -1.0785,0.68498 -2.41732,0.68498 -1.54936,0 -1.86623,-0.13568 -9.4233,-4.03489 -4.30101,-2.2192 -7.90659,-4.07139 -8.01239,-4.11599 -0.10581,-0.0446 -0.23173,1.48405 -0.27984,3.39699 -0.0864,3.43631 -0.0964,3.48572 -0.82983,4.11598 -0.6132,0.52692 -1.02751,0.63723 -2.38125,0.63401 z"
       inkscape:connector-curvature="0" />
    <path
       style="fill:#d45500;stroke-width:1.00000012"
       d="m -897.94922,794.74805 -2.95703,0.0605 c -9.78532,0.0731 -17.83545,0.23441 -23.42969,0.51563 -10.73147,0.31978 -13.50608,0.80301 -17.78711,2.49023 -3.17106,1.24978 -7.17289,3.45532 -8.89257,4.90235 -1.71969,1.44703 -3.95128,4.45108 -4.96094,6.67382 -1.62407,3.57582 -1.83594,6.92103 -1.83594,29.04102 0,0.15271 0.002,0.21821 0.002,0.36914 -2e-5,0.15093 -0.002,0.21643 -0.002,0.36914 0,22.11999 0.21187,25.46521 1.83594,29.04102 1.00966,2.22274 3.24125,5.22484 4.96094,6.67187 1.71968,1.44703 5.72151,3.65257 8.89257,4.90235 4.28292,1.68797 7.05743,2.17241 17.80078,2.49218 5.61142,0.28176 13.68652,0.44301 23.50977,0.51563 l 2.86328,0.0586 0.0352,-0.0351 c 1.00609,0.005 1.79375,0.0224 2.83984,0.0254 24.74525,0.0714 31.98403,-0.20445 34.64063,-1.31446 2.42657,-1.01389 3.6864,-2.40061 4.54492,-5.00195 0.65333,-1.98013 0.90234,-4.90307 0.55273,-6.49414 -0.34945,-1.59107 -1.55456,-3.72657 -2.67968,-4.74609 -1.88032,-1.70378 -4.73057,-1.89397 -35.24024,-2.35352 -29.56876,-0.44542 -33.4879,-0.69401 -35.89648,-2.27344 -2.39358,-1.56952 -2.70508,-2.40166 -2.70508,-7.25 v -4.73828 h 33.85156 c 22.1359,0 34.94834,-0.38275 37.02148,-1.10547 1.74369,-0.60782 3.61005,-1.92955 4.14844,-2.93554 0.5384,-1.006 0.97852,-3.4617 0.97852,-5.45899 0,-0.11855 -0.0145,-0.24775 -0.0176,-0.36914 0.003,-0.12139 0.0176,-0.25059 0.0176,-0.36914 0,-1.99729 -0.44012,-4.45494 -0.97852,-5.46094 -0.53839,-1.00599 -2.40475,-2.32577 -4.14844,-2.93359 -2.07314,-0.72272 -14.88558,-1.10547 -37.02148,-1.10547 h -33.85156 v -4.74023 c 0,-4.84834 0.3115,-5.68048 2.70508,-7.25 2.40858,-1.57943 6.32772,-1.82607 35.89648,-2.27149 30.50967,-0.45955 33.35992,-0.65169 35.24024,-2.35547 1.12512,-1.01952 2.33023,-3.15502 2.67968,-4.74609 0.34961,-1.59107 0.1006,-4.51206 -0.55273,-6.49219 -0.85852,-2.60133 -2.11835,-3.99001 -4.54492,-5.0039 -2.6566,-1.11001 -9.89538,-1.3839 -34.64063,-1.3125 -1.04608,0.003 -1.83376,0.0184 -2.83984,0.0234 z"
       transform="scale(0.26458333)"
       id="path891"
       inkscape:connector-curvature="0" />
    <path
       id="path926"
       style="fill:none;fill-rule:evenodd;stroke:#d45500;stroke-width:6.5;stroke-linecap:round;stroke-linejoin:miter;stroke-miterlimit:4;stroke-dasharray:none;stroke-opacity:1"
       d="m -329.81043,230.85416 c 0,0 0.9488,-17.00892 -2.27734,-17.00892 -4.12014,0 -10.1124,44.60119 -13.96253,44.60119 -3.85013,0 -9.84239,-44.60119 -13.96253,-44.60119 -3.22614,0 -2.27734,17.00892 -2.27734,17.00892"
       inkscape:connector-curvature="0"
       sodipodi:nodetypes="cszsc" />
  </g>
</svg>
